<svg xmlns="http://www.w3.org/2000/svg" xmlns:xlink="http://www.w3.org/1999/xlink" viewBox="0 0 481.56 423.9"><defs><style>.a,.b,.e,.g,.h{fill:#222220;}.a,.b,.f,.h,.i,.j{stroke:#fff;}.a,.b,.c,.d,.e,.f,.g,.h,.i,.j,.k,.l,.m,.n{stroke-miterlimit:10;}.b,.l{stroke-width:1.5px;}.c,.d,.i{fill:none;}.c,.d,.e,.g,.k,.l,.m,.n{stroke:#222220;}.c,.m{stroke-width:1.86px;}.d,.n{stroke-width:1.52px;}.e,.j{stroke-width:0.5px;}.f{fill:url(#a);}.g{stroke-width:1.93px;}.h,.i{stroke-width:4px;}.j,.k,.l,.m,.n{fill:#fff;}</style><linearGradient id="a" x1="250.63" y1="179" x2="326.83" y2="179" gradientUnits="userSpaceOnUse"><stop offset="0" stop-color="#fff"/><stop offset="0.05" stop-color="#ebebeb"/><stop offset="0.18" stop-color="#b7b7b6"/><stop offset="0.32" stop-color="#898988"/><stop offset="0.46" stop-color="#646462"/><stop offset="0.6" stop-color="#474745"/><stop offset="0.74" stop-color="#323231"/><stop offset="0.87" stop-color="#262624"/><stop offset="1" stop-color="#222220"/></linearGradient></defs><title>rolls box(1)</title><path class="a" d="M121.51,227.68H76.63v-2.82q6.23,0,8.63-3.36t2.41-12.09V148.67q0-8.89-2.28-12.21t-8.76-3.32v-2.82h36.73q15.79,0,24.85,6.51T147.27,154q0,15.67-19.59,22.06v.42a32.75,32.75,0,0,1,18.14,9.84,25,25,0,0,1,7,17.49,20.67,20.67,0,0,1-8.6,17.32Q135.63,227.68,121.51,227.68Zm-21-93.63V175.3h10.07q10.57,0,16.81-5.52t6.24-14.9q0-9.88-6.12-15.36T110.28,134Zm9.23,45h-9.23v28.55q0,9.46,2.08,12.91t8,3.44h8.07a18.19,18.19,0,0,0,13.85-5.69q5.37-5.69,5.37-15.23,0-10.87-7.7-17.43T109.77,179Z" transform="translate(-35.69 -73.31)"/><path class="b" d="M81.65,170.42H73.76V197.2q0,8.65,2.45,12.06t8.67,3.41v2.82h-35v-2.82q6.47,0,8.76-3.41t2.28-12V136.15q0-8.64-2.24-11.92t-8.8-3.28v-2.82H89.78q14.77,0,23.62,7.18a22.56,22.56,0,0,1,8.84,18.3q0,17.93-20.09,23.91a39.42,39.42,0,0,1,8.61,7.76q4.2,4.94,11,16.41,7.64,12.72,11.94,16.69a14.75,14.75,0,0,0,8.93,4.3v2.82H122.74a190.9,190.9,0,0,1-14.86-21.7q-9.3-15.05-14.57-19.21A18.39,18.39,0,0,0,81.65,170.42ZM84,121.86H73.76v44.49h12q10.71,0,16.81-6.14t6.1-16.27q0-9.88-6.77-16T84,121.86Z" transform="translate(-35.69 -73.31)"/><rect class="c" x="3.79" y="2.53" width="127.84" height="196.55" rx="12.61" ry="12.61"/><rect class="d" x="3.79" y="33.25" width="127.84" height="137.49"/><path class="e" d="M65.91,92.78h-1.3v4.73a4.06,4.06,0,0,0,.4,2.13,1.59,1.59,0,0,0,1.43.6v.5H60.68v-.5a1.57,1.57,0,0,0,1.44-.6,4.3,4.3,0,0,0,.38-2.13V86.74a4.23,4.23,0,0,0-.37-2.1,1.59,1.59,0,0,0-1.45-.58v-.5h6.57a5.71,5.71,0,0,1,3.89,1.27,4.09,4.09,0,0,1,1.46,3.23q0,3.16-3.31,4.22a6.65,6.65,0,0,1,1.42,1.37,22.81,22.81,0,0,1,1.81,2.9,14.87,14.87,0,0,0,2,2.94,2.36,2.36,0,0,0,1.47.76v.5H72.68a33.83,33.83,0,0,1-2.45-3.83,14.41,14.41,0,0,0-2.4-3.39A2.9,2.9,0,0,0,65.91,92.78Zm.38-8.57H64.61v7.85h2A3.59,3.59,0,0,0,69.35,91a4.06,4.06,0,0,0,1-2.87,3.74,3.74,0,0,0-1.11-2.82A4.06,4.06,0,0,0,66.29,84.21Z" transform="translate(-35.69 -73.31)"/><path class="e" d="M78.89,92.07a8.84,8.84,0,0,1,2.46-6.38,8.16,8.16,0,0,1,6.14-2.56,8,8,0,0,1,6,2.59A8.86,8.86,0,0,1,96,92.07a9.06,9.06,0,0,1-2.49,6.46,8.3,8.3,0,0,1-12.13,0A9.09,9.09,0,0,1,78.89,92.07Zm2.46,0A10.21,10.21,0,0,0,83,98.18a5.15,5.15,0,0,0,4.37,2.32,5.22,5.22,0,0,0,4.43-2.37,9.9,9.9,0,0,0,1.7-5.92,10.22,10.22,0,0,0-1.67-6.12,5.11,5.11,0,0,0-4.32-2.31A5.33,5.33,0,0,0,83,86.06,9.88,9.88,0,0,0,81.35,92.1Z" transform="translate(-35.69 -73.31)"/><path class="e" d="M113,97h.48l-1,3.75H100.84v-.5a1.53,1.53,0,0,0,1.4-.66,4.35,4.35,0,0,0,.42-2.21V86.55a3.53,3.53,0,0,0-.39-1.94,1.64,1.64,0,0,0-1.43-.55v-.5h5.74v.5a1.52,1.52,0,0,0-1.37.63,3.91,3.91,0,0,0-.42,2.08V98.25a1.76,1.76,0,0,0,.38,1.3,2.16,2.16,0,0,0,1.44.35h3.18a3,3,0,0,0,2.06-.55A5.52,5.52,0,0,0,113,97Z" transform="translate(-35.69 -73.31)"/><path class="e" d="M130.95,97h.48l-1,3.75H118.83v-.5a1.53,1.53,0,0,0,1.4-.66,4.35,4.35,0,0,0,.42-2.21V86.55a3.53,3.53,0,0,0-.39-1.94,1.64,1.64,0,0,0-1.43-.55v-.5h5.74v.5a1.52,1.52,0,0,0-1.37.63,3.91,3.91,0,0,0-.42,2.08V98.25a1.76,1.76,0,0,0,.38,1.3,2.16,2.16,0,0,0,1.44.35h3.18a3,3,0,0,0,2.06-.55A5.52,5.52,0,0,0,130.95,97Z" transform="translate(-35.69 -73.31)"/><path class="e" d="M144.13,83.31h.45v4h-.48A4.05,4.05,0,0,0,143,84.73a3.34,3.34,0,0,0-2.43-.94,3,3,0,0,0-2.09.7,2.38,2.38,0,0,0-.79,1.88,3.27,3.27,0,0,0,.66,2,11.42,11.42,0,0,0,2.84,2.3,12.85,12.85,0,0,1,3.42,2.84,4.65,4.65,0,0,1,.88,2.78,4.89,4.89,0,0,1-1.34,3.46,4.24,4.24,0,0,1-3.22,1.44,8.22,8.22,0,0,1-2.78-.64,3.59,3.59,0,0,0-.89-.26q-.4,0-.61.66h-.48V96.27h.48a4.21,4.21,0,0,0,1.17,3.08,3.68,3.68,0,0,0,2.69,1.16,3.26,3.26,0,0,0,2.34-.84,2.93,2.93,0,0,0,.88-2.23,3.25,3.25,0,0,0-.72-2,12.92,12.92,0,0,0-3-2.46,13.62,13.62,0,0,1-2.5-2,4.77,4.77,0,0,1-.93-1.58,5.66,5.66,0,0,1-.3-1.88,4.38,4.38,0,0,1,1.21-3.21,4.22,4.22,0,0,1,3.15-1.23,6.88,6.88,0,0,1,2.32.45,3,3,0,0,0,.82.21.31.31,0,0,0,.26-.09A1.29,1.29,0,0,0,144.13,83.31Z" transform="translate(-35.69 -73.31)"/><path class="e" d="M82.25,266.62h-8v-.5a1.76,1.76,0,0,0,1.53-.59,3.86,3.86,0,0,0,.43-2.13V252.68a4.06,4.06,0,0,0-.4-2.16,1.77,1.77,0,0,0-1.55-.59v-.5H80.8a7.44,7.44,0,0,1,4.4,1.15,3.56,3.56,0,0,1,1.6,3q0,2.77-3.47,3.89v.07a5.81,5.81,0,0,1,3.21,1.74,4.41,4.41,0,0,1,1.24,3.09,3.64,3.64,0,0,1-1.52,3.06A6.51,6.51,0,0,1,82.25,266.62ZM78.53,250.1v7.28h1.78a4.34,4.34,0,0,0,3-1,3.33,3.33,0,0,0,1.11-2.63,3.44,3.44,0,0,0-1.08-2.71,4.44,4.44,0,0,0-3.06-1ZM80.17,258H78.53v5a4.84,4.84,0,0,0,.37,2.28,1.52,1.52,0,0,0,1.42.61h1.43a3.23,3.23,0,0,0,2.45-1,3.75,3.75,0,0,0,1-2.69,3.83,3.83,0,0,0-1.36-3.08A5.4,5.4,0,0,0,80.17,258Z" transform="translate(-35.69 -73.31)"/><path class="e" d="M93.37,258A8.5,8.5,0,0,1,96,251.57a9.13,9.13,0,0,1,6.6-2.56,8.94,8.94,0,0,1,6.49,2.59,8.52,8.52,0,0,1,2.65,6.34,8.72,8.72,0,0,1-2.68,6.46,9.4,9.4,0,0,1-13.06,0A8.74,8.74,0,0,1,93.37,258ZM96,258a9.68,9.68,0,0,0,1.79,6.09,5.67,5.67,0,0,0,4.71,2.32,5.75,5.75,0,0,0,4.77-2.37,9.4,9.4,0,0,0,1.83-5.92,9.69,9.69,0,0,0-1.79-6.12,5.62,5.62,0,0,0-4.65-2.31,5.89,5.89,0,0,0-4.85,2.27A9.38,9.38,0,0,0,96,258Z" transform="translate(-35.69 -73.31)"/><path class="e" d="M129.4,251.8l-4.28,5.5,4.39,6a13.45,13.45,0,0,0,1.85,2.16,3.21,3.21,0,0,0,1.6.69v.5H126v-.5q1.32,0,1.32-1.21a2.78,2.78,0,0,0-.63-1.62l-3-4.16-3.33,4.28a3,3,0,0,0-.78,1.69q0,.9,1.35,1v.5h-5.52v-.5a2.85,2.85,0,0,0,1.6-.44,7,7,0,0,0,1.53-1.56l4.54-5.81-4.16-5.7a11.35,11.35,0,0,0-1.82-2.08,2.63,2.63,0,0,0-1.7-.6v-.5H122v.5q-1.25,0-1.25.9a1.91,1.91,0,0,0,.44,1.09l3.28,4.54,3.23-4.06a2.83,2.83,0,0,0,.75-1.6q0-.86-1.38-.86v-.5h5.51v.5a3.52,3.52,0,0,0-1.68.34A5.9,5.9,0,0,0,129.4,251.8Z" transform="translate(-35.69 -73.31)"/><path class="f" d="M295.51,227.68H250.63v-2.82q6.23,0,8.63-3.36t2.41-12.09V148.67q0-8.89-2.28-12.21t-8.76-3.32v-2.82h36.73q15.79,0,24.85,6.51T321.27,154q0,15.67-19.59,22.06v.42a32.75,32.75,0,0,1,18.14,9.84,25,25,0,0,1,7,17.49,20.67,20.67,0,0,1-8.6,17.32Q309.63,227.68,295.51,227.68Zm-21-93.63V175.3h10.07q10.57,0,16.81-5.52t6.24-14.9q0-9.88-6.12-15.36T284.28,134Zm9.23,45h-9.23v28.55q0,9.46,2.08,12.91t8,3.44h8.07a18.19,18.19,0,0,0,13.85-5.69q5.37-5.69,5.37-15.23,0-10.87-7.7-17.43T283.77,179Z" transform="translate(-35.69 -73.31)"/><path class="b" d="M255.65,170.42h-7.89V197.2q0,8.65,2.45,12.06t8.67,3.41v2.82h-35v-2.82q6.47,0,8.76-3.41t2.28-12V136.15q0-8.64-2.24-11.92t-8.8-3.28v-2.82h39.93q14.77,0,23.62,7.18a22.56,22.56,0,0,1,8.84,18.3q0,17.93-20.09,23.91a39.42,39.42,0,0,1,8.61,7.76q4.2,4.94,11,16.41,7.64,12.72,11.94,16.69a14.75,14.75,0,0,0,8.93,4.3v2.82H296.74a190.9,190.9,0,0,1-14.86-21.7q-9.3-15.05-14.57-19.21A18.39,18.39,0,0,0,255.65,170.42ZM258,121.86H247.76v44.49h12q10.71,0,16.81-6.14t6.1-16.27q0-9.88-6.77-16T258,121.86Z" transform="translate(-35.69 -73.31)"/><rect class="c" x="177.79" y="2.53" width="127.84" height="196.55" rx="12.61" ry="12.61"/><rect class="d" x="177.79" y="33.25" width="127.84" height="137.49"/><path class="e" d="M239.91,92.78h-1.3v4.73a4.06,4.06,0,0,0,.4,2.13,1.59,1.59,0,0,0,1.43.6v.5h-5.77v-.5a1.57,1.57,0,0,0,1.44-.6,4.3,4.3,0,0,0,.38-2.13V86.74a4.23,4.23,0,0,0-.37-2.1,1.59,1.59,0,0,0-1.45-.58v-.5h6.57a5.71,5.71,0,0,1,3.89,1.27,4.09,4.09,0,0,1,1.46,3.23q0,3.16-3.31,4.22a6.65,6.65,0,0,1,1.42,1.37,22.81,22.81,0,0,1,1.81,2.9,14.87,14.87,0,0,0,2,2.94,2.36,2.36,0,0,0,1.47.76v.5h-3.28a33.83,33.83,0,0,1-2.45-3.83,14.41,14.41,0,0,0-2.4-3.39A2.9,2.9,0,0,0,239.91,92.78Zm.38-8.57h-1.68v7.85h2A3.59,3.59,0,0,0,243.35,91a4.06,4.06,0,0,0,1-2.87,3.74,3.74,0,0,0-1.11-2.82A4.06,4.06,0,0,0,240.29,84.21Z" transform="translate(-35.69 -73.31)"/><path class="e" d="M252.89,92.07a8.84,8.84,0,0,1,2.46-6.38,8.16,8.16,0,0,1,6.14-2.56,8,8,0,0,1,6,2.59A8.86,8.86,0,0,1,270,92.07a9.06,9.06,0,0,1-2.49,6.46,8.3,8.3,0,0,1-12.13,0A9.09,9.09,0,0,1,252.89,92.07Zm2.46,0A10.21,10.21,0,0,0,257,98.18a5.15,5.15,0,0,0,4.37,2.32,5.22,5.22,0,0,0,4.43-2.37,9.9,9.9,0,0,0,1.7-5.92,10.22,10.22,0,0,0-1.67-6.12,5.11,5.11,0,0,0-4.32-2.31,5.33,5.33,0,0,0-4.5,2.27A9.88,9.88,0,0,0,255.35,92.1Z" transform="translate(-35.69 -73.31)"/><path class="e" d="M287,97h.48l-1,3.75H274.84v-.5a1.53,1.53,0,0,0,1.4-.66,4.35,4.35,0,0,0,.42-2.21V86.55a3.53,3.53,0,0,0-.39-1.94,1.64,1.64,0,0,0-1.43-.55v-.5h5.74v.5a1.52,1.52,0,0,0-1.37.63,3.91,3.91,0,0,0-.42,2.08V98.25a1.76,1.76,0,0,0,.38,1.3,2.16,2.16,0,0,0,1.44.35h3.18a3,3,0,0,0,2.06-.55A5.52,5.52,0,0,0,287,97Z" transform="translate(-35.69 -73.31)"/><path class="e" d="M304.95,97h.48l-1,3.75H292.83v-.5a1.53,1.53,0,0,0,1.4-.66,4.35,4.35,0,0,0,.42-2.21V86.55a3.53,3.53,0,0,0-.39-1.94,1.64,1.64,0,0,0-1.43-.55v-.5h5.74v.5a1.52,1.52,0,0,0-1.37.63,3.91,3.91,0,0,0-.42,2.08V98.25a1.76,1.76,0,0,0,.38,1.3,2.16,2.16,0,0,0,1.44.35h3.18a3,3,0,0,0,2.06-.55A5.52,5.52,0,0,0,304.95,97Z" transform="translate(-35.69 -73.31)"/><path class="e" d="M318.13,83.31h.45v4h-.48A4.05,4.05,0,0,0,317,84.73a3.34,3.34,0,0,0-2.43-.94,3,3,0,0,0-2.09.7,2.38,2.38,0,0,0-.79,1.88,3.27,3.27,0,0,0,.66,2,11.42,11.42,0,0,0,2.84,2.3,12.85,12.85,0,0,1,3.42,2.84,4.65,4.65,0,0,1,.88,2.78,4.89,4.89,0,0,1-1.34,3.46,4.24,4.24,0,0,1-3.22,1.44,8.22,8.22,0,0,1-2.78-.64,3.59,3.59,0,0,0-.89-.26q-.4,0-.61.66h-.48V96.27h.48a4.21,4.21,0,0,0,1.17,3.08,3.68,3.68,0,0,0,2.69,1.16,3.26,3.26,0,0,0,2.34-.84,2.93,2.93,0,0,0,.88-2.23,3.25,3.25,0,0,0-.72-2,12.92,12.92,0,0,0-3-2.46,13.62,13.62,0,0,1-2.5-2,4.77,4.77,0,0,1-.93-1.58,5.66,5.66,0,0,1-.3-1.88,4.38,4.38,0,0,1,1.21-3.21,4.22,4.22,0,0,1,3.15-1.23,6.88,6.88,0,0,1,2.32.45,3,3,0,0,0,.82.21.31.31,0,0,0,.26-.09A1.29,1.29,0,0,0,318.13,83.31Z" transform="translate(-35.69 -73.31)"/><path class="e" d="M256.25,266.62h-8v-.5a1.76,1.76,0,0,0,1.53-.59,3.86,3.86,0,0,0,.43-2.13V252.68a4.06,4.06,0,0,0-.4-2.16,1.77,1.77,0,0,0-1.55-.59v-.5h6.51a7.44,7.44,0,0,1,4.4,1.15,3.56,3.56,0,0,1,1.6,3q0,2.77-3.47,3.89v.07a5.81,5.81,0,0,1,3.21,1.74,4.41,4.41,0,0,1,1.24,3.09,3.64,3.64,0,0,1-1.52,3.06A6.51,6.51,0,0,1,256.25,266.62Zm-3.71-16.52v7.28h1.78a4.34,4.34,0,0,0,3-1,3.33,3.33,0,0,0,1.11-2.63,3.44,3.44,0,0,0-1.08-2.71,4.44,4.44,0,0,0-3.06-1Zm1.64,7.94h-1.64v5a4.84,4.84,0,0,0,.37,2.28,1.52,1.52,0,0,0,1.42.61h1.43a3.23,3.23,0,0,0,2.45-1,3.75,3.75,0,0,0,1-2.69,3.83,3.83,0,0,0-1.36-3.08A5.4,5.4,0,0,0,254.17,258Z" transform="translate(-35.69 -73.31)"/><path class="e" d="M267.37,258a8.5,8.5,0,0,1,2.65-6.38,9.13,9.13,0,0,1,6.6-2.56,8.94,8.94,0,0,1,6.49,2.59,8.52,8.52,0,0,1,2.65,6.34,8.72,8.72,0,0,1-2.68,6.46,9.4,9.4,0,0,1-13.06,0A8.74,8.74,0,0,1,267.37,258Zm2.65,0a9.68,9.68,0,0,0,1.79,6.09,5.67,5.67,0,0,0,4.71,2.32,5.75,5.75,0,0,0,4.77-2.37,9.4,9.4,0,0,0,1.83-5.92,9.69,9.69,0,0,0-1.79-6.12,5.62,5.62,0,0,0-4.65-2.31,5.89,5.89,0,0,0-4.85,2.27A9.38,9.38,0,0,0,270,258Z" transform="translate(-35.69 -73.31)"/><path class="e" d="M303.4,251.8l-4.28,5.5,4.39,6a13.45,13.45,0,0,0,1.85,2.16,3.21,3.21,0,0,0,1.6.69v.5H300v-.5q1.32,0,1.32-1.21a2.78,2.78,0,0,0-.63-1.62l-3-4.16-3.33,4.28a3,3,0,0,0-.78,1.69q0,.9,1.35,1v.5h-5.52v-.5a2.85,2.85,0,0,0,1.6-.44,7,7,0,0,0,1.53-1.56l4.54-5.81-4.16-5.7a11.35,11.35,0,0,0-1.82-2.08,2.63,2.63,0,0,0-1.7-.6v-.5H296v.5q-1.25,0-1.25.9a1.91,1.91,0,0,0,.44,1.09l3.28,4.54,3.23-4.06a2.83,2.83,0,0,0,.75-1.6q0-.86-1.38-.86v-.5h5.51v.5a3.52,3.52,0,0,0-1.68.34A5.9,5.9,0,0,0,303.4,251.8Z" transform="translate(-35.69 -73.31)"/><rect class="g" x="348.93" y="0.96" width="131.66" height="205.24" rx="12.61" ry="12.61"/><rect class="h" x="352.98" y="35.06" width="123.2" height="137.49"/><rect class="i" x="352.93" y="4.65" width="123.25" height="196.55" rx="12.61" ry="12.61"/><path class="j" d="M430.35,268.39h-8v-.5a1.76,1.76,0,0,0,1.53-.59,3.86,3.86,0,0,0,.43-2.13V254.45a4.06,4.06,0,0,0-.4-2.16,1.77,1.77,0,0,0-1.55-.59v-.5h6.51a7.44,7.44,0,0,1,4.4,1.15,3.56,3.56,0,0,1,1.6,3q0,2.77-3.47,3.89v.07a5.81,5.81,0,0,1,3.21,1.74,4.41,4.41,0,0,1,1.24,3.09,3.64,3.64,0,0,1-1.52,3.06A6.51,6.51,0,0,1,430.35,268.39Zm-3.71-16.52v7.28h1.78a4.34,4.34,0,0,0,3-1,3.33,3.33,0,0,0,1.11-2.63,3.44,3.44,0,0,0-1.08-2.71,4.44,4.44,0,0,0-3.06-1Zm1.64,7.94h-1.64v5a4.84,4.84,0,0,0,.37,2.28,1.52,1.52,0,0,0,1.42.61h1.43a3.23,3.23,0,0,0,2.45-1,3.75,3.75,0,0,0,1-2.69,3.83,3.83,0,0,0-1.36-3.08A5.4,5.4,0,0,0,428.27,259.81Z" transform="translate(-35.69 -73.31)"/><path class="j" d="M441.48,259.72a8.5,8.5,0,0,1,2.65-6.38,9.13,9.13,0,0,1,6.6-2.56,8.94,8.94,0,0,1,6.49,2.59,8.52,8.52,0,0,1,2.65,6.34,8.72,8.72,0,0,1-2.68,6.46,9.4,9.4,0,0,1-13.06,0A8.74,8.74,0,0,1,441.48,259.72Zm2.65,0a9.68,9.68,0,0,0,1.79,6.09,5.67,5.67,0,0,0,4.71,2.32,5.75,5.75,0,0,0,4.77-2.37,9.4,9.4,0,0,0,1.83-5.92,9.69,9.69,0,0,0-1.79-6.12,5.62,5.62,0,0,0-4.65-2.31,5.89,5.89,0,0,0-4.85,2.27A9.38,9.38,0,0,0,444.12,259.75Z" transform="translate(-35.69 -73.31)"/><path class="j" d="M477.51,253.57l-4.28,5.5,4.39,6a13.45,13.45,0,0,0,1.85,2.16,3.21,3.21,0,0,0,1.6.69v.5h-6.91v-.5q1.32,0,1.32-1.21a2.78,2.78,0,0,0-.63-1.62l-3-4.16-3.33,4.28a3,3,0,0,0-.78,1.69q0,.9,1.35,1v.5h-5.52v-.5a2.85,2.85,0,0,0,1.6-.44,7,7,0,0,0,1.53-1.56l4.54-5.81-4.16-5.7a11.35,11.35,0,0,0-1.82-2.08,2.63,2.63,0,0,0-1.7-.6v-.5h6.62v.5q-1.25,0-1.25.9a1.91,1.91,0,0,0,.44,1.09l3.28,4.54,3.23-4.06a2.83,2.83,0,0,0,.75-1.6q0-.86-1.38-.86v-.5h5.51v.5a3.52,3.52,0,0,0-1.68.34A5.9,5.9,0,0,0,477.51,253.57Z" transform="translate(-35.69 -73.31)"/><path class="k" d="M470.84,228.89H426v-2.82q6.23,0,8.63-3.36T437,210.62V149.88q0-8.89-2.28-12.21T426,134.35v-2.82H462.7q15.79,0,24.85,6.51t9.06,17.21q0,15.67-19.59,22.06v.42a32.75,32.75,0,0,1,18.14,9.84,25,25,0,0,1,7,17.49,20.67,20.67,0,0,1-8.6,17.32Q485,228.89,470.84,228.89Zm-21-93.63v41.25h10.07q10.57,0,16.81-5.52t6.24-14.9q0-9.88-6.12-15.36t-17.27-5.48Zm9.23,45h-9.23V208.8q0,9.46,2.08,12.91t8,3.44H468a18.19,18.19,0,0,0,13.85-5.69q5.37-5.69,5.37-15.23,0-10.87-7.7-17.43T459.1,180.25Z" transform="translate(-35.69 -73.31)"/><path class="l" d="M431,171.63h-7.89v26.78q0,8.65,2.45,12.06t8.67,3.41v2.82h-35v-2.82q6.47,0,8.76-3.41t2.28-12V137.36q0-8.64-2.24-11.92t-8.8-3.28v-2.82h39.93q14.77,0,23.62,7.18a22.56,22.56,0,0,1,8.84,18.3q0,17.93-20.09,23.91a39.42,39.42,0,0,1,8.61,7.76q4.2,4.94,11,16.41,7.64,12.72,11.94,16.69a14.75,14.75,0,0,0,8.93,4.3v2.82H472.07A190.9,190.9,0,0,1,457.21,195q-9.3-15.05-14.57-19.21A18.39,18.39,0,0,0,431,171.63Zm2.32-48.56H423.09v44.49h12q10.71,0,16.81-6.14t6.1-16.27q0-9.88-6.77-16T433.3,123.07Z" transform="translate(-35.69 -73.31)"/><path class="j" d="M413.12,92.78h-1.3v4.73a4.06,4.06,0,0,0,.4,2.13,1.59,1.59,0,0,0,1.43.6v.5h-5.77v-.5a1.57,1.57,0,0,0,1.44-.6,4.3,4.3,0,0,0,.38-2.13V86.74a4.23,4.23,0,0,0-.37-2.1,1.59,1.59,0,0,0-1.45-.58v-.5h6.57a5.71,5.71,0,0,1,3.89,1.27,4.09,4.09,0,0,1,1.46,3.23q0,3.16-3.31,4.22a6.65,6.65,0,0,1,1.42,1.37,22.81,22.81,0,0,1,1.81,2.9,14.87,14.87,0,0,0,2,2.94,2.36,2.36,0,0,0,1.47.76v.5h-3.28a33.83,33.83,0,0,1-2.45-3.83,14.41,14.41,0,0,0-2.4-3.39A2.9,2.9,0,0,0,413.12,92.78Zm.38-8.57h-1.68v7.85h2A3.59,3.59,0,0,0,416.56,91a4.06,4.06,0,0,0,1-2.87,3.74,3.74,0,0,0-1.11-2.82A4.06,4.06,0,0,0,413.5,84.21Z" transform="translate(-35.69 -73.31)"/><path class="j" d="M426.09,92.07a8.84,8.84,0,0,1,2.46-6.38,8.16,8.16,0,0,1,6.14-2.56,8,8,0,0,1,6,2.59,8.86,8.86,0,0,1,2.47,6.34,9.06,9.06,0,0,1-2.49,6.46,8.3,8.3,0,0,1-12.13,0A9.09,9.09,0,0,1,426.09,92.07Zm2.46,0a10.21,10.21,0,0,0,1.67,6.09,5.15,5.15,0,0,0,4.37,2.32A5.22,5.22,0,0,0,439,98.13a9.9,9.9,0,0,0,1.7-5.92,10.22,10.22,0,0,0-1.67-6.12,5.11,5.11,0,0,0-4.32-2.31,5.33,5.33,0,0,0-4.5,2.27A9.88,9.88,0,0,0,428.55,92.1Z" transform="translate(-35.69 -73.31)"/><path class="j" d="M460.16,97h.48l-1,3.75H448v-.5a1.53,1.53,0,0,0,1.4-.66,4.35,4.35,0,0,0,.42-2.21V86.55a3.53,3.53,0,0,0-.39-1.94,1.64,1.64,0,0,0-1.43-.55v-.5h5.74v.5a1.52,1.52,0,0,0-1.37.63,3.91,3.91,0,0,0-.42,2.08V98.25a1.76,1.76,0,0,0,.38,1.3,2.16,2.16,0,0,0,1.44.35H457a3,3,0,0,0,2.06-.55A5.52,5.52,0,0,0,460.16,97Z" transform="translate(-35.69 -73.31)"/><path class="j" d="M478.16,97h.48l-1,3.75H466v-.5a1.53,1.53,0,0,0,1.4-.66,4.35,4.35,0,0,0,.42-2.21V86.55a3.53,3.53,0,0,0-.39-1.94,1.64,1.64,0,0,0-1.43-.55v-.5h5.74v.5a1.52,1.52,0,0,0-1.37.63,3.91,3.91,0,0,0-.42,2.08V98.25a1.76,1.76,0,0,0,.38,1.3,2.16,2.16,0,0,0,1.44.35H475a3,3,0,0,0,2.06-.55A5.52,5.52,0,0,0,478.16,97Z" transform="translate(-35.69 -73.31)"/><path class="j" d="M491.34,83.31h.45v4h-.48a4.05,4.05,0,0,0-1.13-2.61,3.34,3.34,0,0,0-2.43-.94,3,3,0,0,0-2.09.7,2.38,2.38,0,0,0-.79,1.88,3.27,3.27,0,0,0,.66,2,11.42,11.42,0,0,0,2.84,2.3,12.85,12.85,0,0,1,3.42,2.84,4.65,4.65,0,0,1,.88,2.78,4.89,4.89,0,0,1-1.34,3.46,4.24,4.24,0,0,1-3.22,1.44,8.22,8.22,0,0,1-2.78-.64,3.59,3.59,0,0,0-.89-.26q-.4,0-.61.66h-.48V96.27h.48A4.21,4.21,0,0,0,485,99.35a3.68,3.68,0,0,0,2.69,1.16,3.26,3.26,0,0,0,2.34-.84,2.93,2.93,0,0,0,.88-2.23,3.25,3.25,0,0,0-.72-2,12.92,12.92,0,0,0-3-2.46,13.62,13.62,0,0,1-2.5-2,4.77,4.77,0,0,1-.93-1.58,5.66,5.66,0,0,1-.3-1.88,4.38,4.38,0,0,1,1.21-3.21,4.22,4.22,0,0,1,3.15-1.23,6.88,6.88,0,0,1,2.32.45,3,3,0,0,0,.82.21.31.31,0,0,0,.26-.09A1.29,1.29,0,0,0,491.34,83.31Z" transform="translate(-35.69 -73.31)"/><rect class="m" x="0.93" y="226.42" width="127.84" height="196.55" rx="12.61" ry="12.61"/><rect class="n" x="0.93" y="257.14" width="127.84" height="137.49"/><path class="e" d="M63.05,316.67h-1.3v4.73a4.06,4.06,0,0,0,.4,2.13,1.59,1.59,0,0,0,1.43.6v.5H57.82v-.5a1.57,1.57,0,0,0,1.44-.6,4.3,4.3,0,0,0,.38-2.13V310.62a4.23,4.23,0,0,0-.37-2.1,1.59,1.59,0,0,0-1.45-.58v-.5h6.57a5.71,5.71,0,0,1,3.89,1.27,4.09,4.09,0,0,1,1.46,3.23q0,3.16-3.31,4.22a6.65,6.65,0,0,1,1.42,1.37,22.81,22.81,0,0,1,1.81,2.9,14.87,14.87,0,0,0,2,2.94,2.36,2.36,0,0,0,1.47.76v.5H69.81a33.83,33.83,0,0,1-2.45-3.83,14.41,14.41,0,0,0-2.4-3.39A2.9,2.9,0,0,0,63.05,316.67Zm.38-8.57H61.75V316h2a3.59,3.59,0,0,0,2.77-1.08,4.06,4.06,0,0,0,1-2.87,3.74,3.74,0,0,0-1.11-2.82A4.06,4.06,0,0,0,63.43,308.1Z" transform="translate(-35.69 -73.31)"/><path class="e" d="M76,316a8.84,8.84,0,0,1,2.46-6.38A8.16,8.16,0,0,1,84.62,307a8,8,0,0,1,6,2.59A8.86,8.86,0,0,1,93.12,316a9.06,9.06,0,0,1-2.49,6.46,8.3,8.3,0,0,1-12.13,0A9.09,9.09,0,0,1,76,316Zm2.46,0a10.21,10.21,0,0,0,1.67,6.09,5.15,5.15,0,0,0,4.37,2.32A5.22,5.22,0,0,0,89,322a9.9,9.9,0,0,0,1.7-5.92A10.22,10.22,0,0,0,89,310a5.11,5.11,0,0,0-4.32-2.31,5.33,5.33,0,0,0-4.5,2.27A9.88,9.88,0,0,0,78.48,316Z" transform="translate(-35.69 -73.31)"/><path class="e" d="M110.09,320.88h.48l-1,3.75H98v-.5a1.53,1.53,0,0,0,1.4-.66,4.35,4.35,0,0,0,.42-2.21V310.43a3.53,3.53,0,0,0-.39-1.94,1.64,1.64,0,0,0-1.43-.55v-.5h5.74v.5a1.52,1.52,0,0,0-1.37.63,3.91,3.91,0,0,0-.42,2.08v11.48a1.76,1.76,0,0,0,.38,1.3,2.16,2.16,0,0,0,1.44.35h3.18a3,3,0,0,0,2.06-.55A5.52,5.52,0,0,0,110.09,320.88Z" transform="translate(-35.69 -73.31)"/><path class="e" d="M128.09,320.88h.48l-1,3.75H116v-.5a1.53,1.53,0,0,0,1.4-.66,4.35,4.35,0,0,0,.42-2.21V310.43a3.53,3.53,0,0,0-.39-1.94,1.64,1.64,0,0,0-1.43-.55v-.5h5.74v.5a1.52,1.52,0,0,0-1.37.63,3.91,3.91,0,0,0-.42,2.08v11.48a1.76,1.76,0,0,0,.38,1.3,2.16,2.16,0,0,0,1.44.35h3.18a3,3,0,0,0,2.06-.55A5.52,5.52,0,0,0,128.09,320.88Z" transform="translate(-35.69 -73.31)"/><path class="e" d="M141.27,307.19h.45v4h-.48a4.05,4.05,0,0,0-1.13-2.61,3.34,3.34,0,0,0-2.43-.94,3,3,0,0,0-2.09.7,2.38,2.38,0,0,0-.79,1.88,3.27,3.27,0,0,0,.66,2,11.42,11.42,0,0,0,2.84,2.3,12.85,12.85,0,0,1,3.42,2.84,4.65,4.65,0,0,1,.88,2.78,4.89,4.89,0,0,1-1.34,3.46,4.24,4.24,0,0,1-3.22,1.44,8.22,8.22,0,0,1-2.78-.64,3.59,3.59,0,0,0-.89-.26q-.4,0-.61.66h-.48v-4.64h.48a4.21,4.21,0,0,0,1.17,3.08,3.68,3.68,0,0,0,2.69,1.16,3.26,3.26,0,0,0,2.34-.84,2.93,2.93,0,0,0,.88-2.23,3.25,3.25,0,0,0-.72-2,12.92,12.92,0,0,0-3-2.46,13.62,13.62,0,0,1-2.5-2,4.77,4.77,0,0,1-.93-1.58,5.66,5.66,0,0,1-.3-1.88,4.38,4.38,0,0,1,1.21-3.21,4.22,4.22,0,0,1,3.15-1.23,6.88,6.88,0,0,1,2.32.45,3,3,0,0,0,.82.21.31.31,0,0,0,.26-.09A1.29,1.29,0,0,0,141.27,307.19Z" transform="translate(-35.69 -73.31)"/><path class="e" d="M79.38,490.51h-8V490a1.76,1.76,0,0,0,1.53-.59,3.86,3.86,0,0,0,.43-2.13V476.57a4.06,4.06,0,0,0-.4-2.16,1.77,1.77,0,0,0-1.55-.59v-.5h6.51a7.44,7.44,0,0,1,4.4,1.15,3.56,3.56,0,0,1,1.6,3q0,2.77-3.47,3.89v.07a5.81,5.81,0,0,1,3.21,1.74,4.41,4.41,0,0,1,1.24,3.09,3.64,3.64,0,0,1-1.52,3.06A6.51,6.51,0,0,1,79.38,490.51ZM75.67,474v7.28h1.78a4.34,4.34,0,0,0,3-1,3.33,3.33,0,0,0,1.11-2.63A3.44,3.44,0,0,0,80.45,475a4.44,4.44,0,0,0-3.06-1Zm1.64,7.94H75.67v5a4.84,4.84,0,0,0,.37,2.28,1.52,1.52,0,0,0,1.42.61h1.43a3.23,3.23,0,0,0,2.45-1,3.75,3.75,0,0,0,1-2.69,3.83,3.83,0,0,0-1.36-3.08A5.4,5.4,0,0,0,77.3,481.93Z" transform="translate(-35.69 -73.31)"/><path class="e" d="M90.51,481.84a8.5,8.5,0,0,1,2.65-6.38,9.13,9.13,0,0,1,6.6-2.56,8.94,8.94,0,0,1,6.49,2.59,8.52,8.52,0,0,1,2.65,6.34,8.72,8.72,0,0,1-2.68,6.46,9.4,9.4,0,0,1-13.06,0A8.74,8.74,0,0,1,90.51,481.84Zm2.65,0A9.68,9.68,0,0,0,94.95,488a5.67,5.67,0,0,0,4.71,2.32,5.75,5.75,0,0,0,4.77-2.37,9.4,9.4,0,0,0,1.83-5.92,9.69,9.69,0,0,0-1.79-6.12,5.62,5.62,0,0,0-4.65-2.31A5.89,5.89,0,0,0,95,475.83,9.38,9.38,0,0,0,93.15,481.87Z" transform="translate(-35.69 -73.31)"/><path class="e" d="M126.54,475.69l-4.28,5.5,4.39,6a13.45,13.45,0,0,0,1.85,2.16,3.21,3.21,0,0,0,1.6.69v.5h-6.91V490q1.32,0,1.32-1.21a2.78,2.78,0,0,0-.63-1.62l-3-4.16-3.33,4.28a3,3,0,0,0-.78,1.69q0,.9,1.35,1v.5h-5.52V490a2.85,2.85,0,0,0,1.6-.44A7,7,0,0,0,115.7,488l4.54-5.81-4.16-5.7a11.35,11.35,0,0,0-1.82-2.08,2.63,2.63,0,0,0-1.7-.6v-.5h6.62v.5q-1.25,0-1.25.9a1.91,1.91,0,0,0,.44,1.09l3.28,4.54,3.23-4.06a2.83,2.83,0,0,0,.75-1.6q0-.86-1.38-.86v-.5h5.51v.5a3.52,3.52,0,0,0-1.68.34A5.9,5.9,0,0,0,126.54,475.69Z" transform="translate(-35.69 -73.31)"/><path class="a" d="M118.76,451.57H73.89v-2.82q6.23,0,8.63-3.36t2.41-12.09V372.56q0-8.89-2.28-12.21T73.89,357V354.2h36.73q15.79,0,24.85,6.51t9.06,17.21q0,15.67-19.59,22.06v.42a32.75,32.75,0,0,1,18.14,9.84,25,25,0,0,1,7,17.49,20.67,20.67,0,0,1-8.6,17.32Q132.89,451.57,118.76,451.57Zm-21-93.63v41.25h10.07q10.57,0,16.81-5.52t6.24-14.9q0-9.88-6.12-15.36t-17.27-5.48Zm9.23,45H97.8v28.55q0,9.46,2.08,12.91t8,3.44h8.07a18.19,18.19,0,0,0,13.85-5.69q5.37-5.69,5.37-15.23,0-10.87-7.7-17.43T107,402.92Z" transform="translate(-35.69 -73.31)"/><path class="b" d="M78.91,394.3H71v26.78q0,8.65,2.45,12.06t8.67,3.41v2.82h-35v-2.82q6.47,0,8.76-3.41t2.28-12V360q0-8.64-2.24-11.92t-8.8-3.28V342H87q14.77,0,23.62,7.18a22.56,22.56,0,0,1,8.84,18.3q0,17.93-20.09,23.91a39.42,39.42,0,0,1,8.61,7.76q4.2,4.94,11,16.41,7.64,12.72,11.94,16.69a14.75,14.75,0,0,0,8.93,4.3v2.82H120a190.9,190.9,0,0,1-14.86-21.7q-9.3-15.05-14.57-19.21A18.39,18.39,0,0,0,78.91,394.3Zm2.32-48.56H71v44.49H83q10.71,0,16.81-6.14t6.1-16.27q0-9.88-6.77-16T81.23,345.75Z" transform="translate(-35.69 -73.31)"/></svg>